<?xml version="1.0" encoding="iso-8859-1"?>
<!-- Generator: Adobe Illustrator 19.0.0, SVG Export Plug-In . SVG Version: 6.00 Build 0)  -->
<svg version="1.1" id="Layer_1" xmlns="http://www.w3.org/2000/svg" xmlns:xlink="http://www.w3.org/1999/xlink" x="0px" y="0px"
	 viewBox="0 0 487.9 487.9" style="enable-background:new 0 0 487.9 487.9;" xml:space="preserve">
<g transform="translate(0 -540.36)">
	<g>
		<g>
			<path class="jp-icon2" fill="#424242" d="M419.549,602.06L419.549,602.06l-82.7,0v-10.3c0-5.5-4.5-10-10-10h-32.3c-4.4-23-24.8-40.5-50.2-41.4c-0.1,0-0.2,0-0.4,0
				c-25.2,0-46.1,17.9-50.5,41.4h-32.3c-5.5,0-10,4.5-10,10v10.3h-82.7c-5.5,0-10,4.5-10,10v406.2c0,5.5,4.5,10,10,10h351
				c5.5,0,10-4.5,10-10v-406.2C429.549,606.46,425.049,602.06,419.549,602.06z M243.849,560.26c14.3,0.6,26,9.4,30.1,21.4h-59.8
				C218.049,569.36,229.949,560.36,243.849,560.26z M171.249,601.66h145.6v20.6h-145.6V601.66z M409.549,1008.26h-331v-386.2h72.7
				v10.3c0,5.5,4.5,10,10,10h165.6c5.5,0,10-4.5,10-10v-10.3h72.7V1008.26z"/>
			<path class="jp-icon2" fill="#424242" d="M319.849,747.06l-117.2,115l-34.4-33.7c-3.9-3.9-10.2-3.8-14.1,0.1c-3.9,3.9-3.8,10.2,0.1,14.1l41.4,40.6
				c1.9,1.9,4.5,2.9,7,2.9l0,0c2.5,0,5.1-0.9,7-2.9l124.2-121.9c3.9-3.8,4-10.2,0.1-14.1
				C330.149,743.26,323.749,743.16,319.849,747.06z"/>
		</g>
	</g>
</g>
<g>
</g>
<g>
</g>
<g>
</g>
<g>
</g>
<g>
</g>
<g>
</g>
<g>
</g>
<g>
</g>
<g>
</g>
<g>
</g>
<g>
</g>
<g>
</g>
<g>
</g>
<g>
</g>
<g>
</g>
</svg>
